<svg width="272" height="92" xmlns="http://www.w3.org/2000/svg">
  <path d="M115.75 47.18c0 12.77-9.99 22.18-22.25 22.18s-22.25-9.41-22.25-22.18C71.25 34.32 81.24 25 93.5 25s22.25 9.32 22.25 22.18zm-9.74 0c0-7.98-5.79-13.44-12.51-13.44S80.99 39.2 80.99 47.18c0 7.9 5.79 13.44 12.51 13.44s12.51-5.55 12.51-13.44z" fill="#EA4335"/>
  <path d="M163.75 47.18c0 12.77-9.99 22.18-22.25 22.18s-22.25-9.41-22.25-22.18c0-12.85 9.99-22.18 22.25-22.18s22.25 9.32 22.25 22.18zm-9.74 0c0-7.98-5.79-13.44-12.51-13.44s-12.51 5.46-12.51 13.44c0 7.9 5.79 13.44 12.51 13.44s12.51-5.55 12.51-13.44z" fill="#FBBC05"/>
  <path d="M209.75 29.59v39.38c0 16.2-9.54 22.77-20.82 22.77-10.6 0-16.97-7.11-19.38-12.93l8.37-3.48c1.49 3.55 5.14 7.75 11.01 7.75 7.21 0 11.67-4.45 11.67-12.78v-3.15h-.33c-2.15 2.64-6.29 4.97-11.5 4.97-10.93 0-20.96-9.52-20.96-21.76 0-12.35 10.03-22.07 20.96-22.07 5.21 0 9.35 2.31 11.5 4.85h.33v-3.53h9.15zm-8.5 17.69c0-7.72-5.14-13.35-11.67-13.35-6.62 0-12.17 5.63-12.17 13.35 0 7.62 5.55 13.16 12.17 13.16 6.53 0 11.67-5.54 11.67-13.16z" fill="#4285F4"/>
  <path d="M225 3v65h-9.5V3h9.5z" fill="#34A853"/>
  <path d="M262.02 54.48l7.45 4.98c-2.41 3.55-8.21 9.7-18.22 9.7-12.43 0-21.72-9.62-21.72-22.17 0-13.18 9.37-22.17 20.63-22.17 11.35 0 16.88 9.03 18.71 13.9l1 2.48-29.22 12.09c2.24 4.38 5.7 6.61 10.6 6.61 4.9 0 8.29-2.4 10.77-6.42zm-22.92-7.88l19.54-8.12c-1.08-2.73-4.32-4.63-8.13-4.63-4.89 0-11.68 4.32-11.41 12.75z" fill="#EA4335"/>
</svg> 